<?xml version="1.0" encoding="UTF-8" standalone="no"?>
<!-- Created with Skedio (http://skedio.shturmsoft.com/) -->

<svg
   xmlns:dc="http://purl.org/dc/elements/1.1/"
   xmlns:cc="http://creativecommons.org/ns#"
   xmlns:rdf="http://www.w3.org/1999/02/22-rdf-syntax-ns#"
   xmlns:svg="http://www.w3.org/2000/svg"
   xmlns="http://www.w3.org/2000/svg"
   xmlns:sodipodi="http://sodipodi.sourceforge.net/DTD/sodipodi-0.dtd"
   xmlns:inkscape="http://www.inkscape.org/namespaces/inkscape"
   version="1.1"
   width="309.86963pt"
   height="117.44445pt"
   viewBox="0 0 309.86963 117.44445"
   id="svg23052"
   sodipodi:docname="__24_merge3.svg"
   inkscape:version="0.92.2 5c3e80d, 2017-08-06">
  <metadata
     id="metadata23058">
    <rdf:RDF>
      <cc:Work
         rdf:about="">
        <dc:format>image/svg+xml</dc:format>
        <dc:type
           rdf:resource="http://purl.org/dc/dcmitype/StillImage" />
        <dc:title></dc:title>
      </cc:Work>
    </rdf:RDF>
  </metadata>
  <defs
     id="defs23056" />
  <sodipodi:namedview
     pagecolor="#ffffff"
     bordercolor="#666666"
     borderopacity="1"
     objecttolerance="10"
     gridtolerance="10"
     guidetolerance="10"
     inkscape:pageopacity="0"
     inkscape:pageshadow="2"
     inkscape:window-width="1221"
     inkscape:window-height="668"
     id="namedview23054"
     showgrid="false"
     inkscape:zoom="9.4045202"
     inkscape:cx="222.25866"
     inkscape:cy="61.780493"
     inkscape:window-x="41"
     inkscape:window-y="94"
     inkscape:window-maximized="0"
     inkscape:current-layer="layer1"
     fit-margin-top="0"
     fit-margin-left="0"
     fit-margin-right="0"
     fit-margin-bottom="0" />
  <g
     id="layer1"
     transform="translate(-26.016823,-25.614786)">
    <path
       d="m 100.252,66.758 c -1.902,0.128 -3.948,0.964 -5.707,0.384 -1.938,-0.639 -4.39,-2.716 -5.292,-4.496 -0.793,-1.564 -0.743,-3.579 -0.382,-5.344 0.396,-1.939 1.744,-4.382 2.956,-5.759 0.945,-1.074 1.957,-1.748 3.249,-2.229 1.523,-0.566 3.746,-0.89 5.436,-0.605 1.615,0.272 3.473,1.213 4.51,2.151 0.809,0.731 1.17,1.566 1.578,2.595 0.507,1.281 1.023,2.989 0.975,4.601 -0.055,1.816 -0.394,4.205 -1.585,5.747 -1.342,1.736 -4.364,2.524 -6.546,3.786"
       id="path23019"
       style="fill:#bc80bd;fill-opacity:0.26400003;stroke:none;stroke-width:2;stroke-linecap:round;stroke-linejoin:round"
       inkscape:connector-curvature="0" />
    <path
       d="m 108.69921,52.541375 c 0,0 -5.90953,-8.339481 -10.480736,-9.328556 -4.011121,-0.867889 -7.739483,4.485508 -11.757818,3.65166 -1.838408,-0.38149 -3.527232,-1.948816 -4.27038,-3.673057 -1.220888,-2.832687 -1.416163,-6.773222 0.430799,-9.243731 3.467811,-4.638566 10.950453,-3.775765 16.417707,-5.686563 2.057018,-0.718924 3.995868,-2.381488 6.164998,-2.174 2.12296,0.203072 3.84688,1.911819 5.521,3.233 3.8187,3.01364 9.14106,5.765292 10.09972,10.534511 0.56974,2.834416 -1.88689,5.477526 -3.11698,8.093896 -0.45346,0.964505 -1.56471,2.788329 -1.56471,2.788329"
       id="path23023"
       style="fill:#fccde5;fill-opacity:0.28000004;stroke:none;stroke-width:2;stroke-linecap:round;stroke-linejoin:round"
       inkscape:connector-curvature="0"
       sodipodi:nodetypes="caaaaaaaaac" />
    <path
       d="m 73.681,76.607 c -3.602,-0.671 -8.351,-0.941 -10.806,-2.015 -1.474,-0.645 -2.362,-1.264 -3.181,-2.37 -0.975,-1.318 -1.709,-3.607 -1.896,-5.299 -0.163,-1.478 0.003,-2.777 0.529,-4.265 0.682,-1.926 2.183,-4.6 3.804,-6.112 1.487,-1.387 3.557,-2.505 5.352,-2.834 1.619,-0.296 3.361,-0.128 4.884,0.613 1.827,0.89 3.886,2.998 5.028,4.989 1.163,2.026 2.03,4.901 1.83,7.096 -0.183,2.017 -1.259,4.116 -2.602,5.62 -1.401,1.569 -3.838,2.333 -5.757,3.5"
       id="path23017"
       style="fill:#fdb462;fill-opacity:0.29600004;stroke:none;stroke-width:2;stroke-linecap:round;stroke-linejoin:round"
       inkscape:connector-curvature="0" />
    <path
       d="m 44.526,99.064 c -3.024,1.111 -6.184,3.456 -9.073,3.334 -2.731,-0.115 -6.295,-1.854 -7.83,-3.652 -1.262,-1.478 -1.572,-3.701 -1.605,-5.612 -0.035,-1.975 0.716,-4.359 1.504,-6.052 0.664,-1.428 1.456,-2.557 2.606,-3.593 1.322,-1.189 3.127,-2.475 5.081,-2.926 2.259,-0.522 5.697,-0.598 7.82,0.536 2.165,1.156 4.291,4.168 4.985,6.447 0.612,2.012 0.419,4.385 -0.43,6.34 -0.972,2.239 -3.797,4.061 -5.696,6.092"
       id="path23015"
       style="fill:#80b1d3;fill-opacity:0.25200004;stroke:none;stroke-width:2;stroke-linecap:round;stroke-linejoin:round"
       inkscape:connector-curvature="0" />
    <path
       d="m 87.886,114.169 c -3.392,0.479 -6.997,1.563 -10.175,1.437 -2.84,-0.113 -6.377,-0.32 -8.008,-1.788 -1.391,-1.253 -2.233,-3.834 -1.907,-5.662 0.37,-2.073 2.659,-4.664 4.824,-5.987 2.401,-1.467 6.451,-2.245 9.261,-1.917 2.52,0.294 5.62,1.483 6.893,3.215 1.189,1.618 1.468,4.565 0.884,6.584 -0.629,2.175 -3.3,3.943 -4.95,5.914"
       id="path23009"
       style="fill:#fb8072;fill-opacity:0.272;stroke:none;stroke-width:2;stroke-linecap:round;stroke-linejoin:round"
       inkscape:connector-curvature="0" />
    <path
       d="m 61.145,110.593 c -3.599,0.261 -8.014,1.615 -10.798,0.784 -2.104,-0.628 -4.087,-1.976 -4.913,-3.757 -0.961,-2.069 -0.758,-6.023 0.407,-8.35 1.215,-2.426 4.429,-4.854 6.998,-5.793 2.364,-0.863 5.488,-0.783 7.693,-0.07 2.005,0.647 4.078,2.007 5.124,3.767 1.154,1.944 1.567,5.46 1.043,7.675 -0.469,1.983 -2.336,3.415 -3.504,5.123"
       id="path23013"
       style="fill:#bebada;fill-opacity:0.18800001;stroke:none;stroke-width:2;stroke-linecap:round;stroke-linejoin:round"
       inkscape:connector-curvature="0" />
    <path
       d="m 55.337452,128.96559 c 0,0 -3.265576,-1.00755 -4.548745,-2.06987 -1.907572,-1.57926 -4.329462,-3.59291 -4.285255,-6.06898 0.04231,-2.36974 2.191088,-4.58829 4.305947,-5.65825 4.49017,-2.27169 10.095544,-0.82695 15.0943,-0.24849 5.990296,0.6932 13.446225,-0.005 17.542301,4.421 1.219654,1.31779 1.125158,3.52696 0.909053,5.30949 -0.167876,1.38471 -0.830287,2.72352 -1.671309,3.83631 -0.85139,1.12651 -1.994986,2.09016 -3.274436,2.68756 -1.349306,0.63002 -2.902942,0.75008 -4.390052,0.82787 -3.587913,0.18768 -10.742354,-0.88143 -10.742354,-0.88143"
       id="path23007"
       style="fill:#8dd3c7;fill-opacity:0.26800005;stroke:none;stroke-width:2;stroke-linecap:round;stroke-linejoin:round"
       inkscape:connector-curvature="0"
       sodipodi:nodetypes="caaaaaaaaac" />
    <ellipse
       cx="70.777"
       cy="65.112999"
       rx="4.7859998"
       ry="4.4310002"
       id="ellipse22985"
       style="fill:#fdb462;fill-opacity:0.90399996;stroke:none;stroke-width:2;stroke-linecap:round;stroke-linejoin:round" />
    <ellipse
       cx="57.397999"
       cy="103.643"
       rx="4.7859998"
       ry="4.4310002"
       id="ellipse22987"
       style="fill:#bebada;fill-opacity:0.95200004;stroke:none;stroke-width:2;stroke-linecap:round;stroke-linejoin:round" />
    <ellipse
       cx="39.179001"
       cy="91.580002"
       rx="4.7859998"
       ry="4.4310002"
       id="ellipse22989"
       style="fill:#80b1d3;fill-opacity:0.972;stroke:none;stroke-width:2;stroke-linecap:round;stroke-linejoin:round" />
    <ellipse
       cx="78.300003"
       cy="109.869"
       rx="4.7859998"
       ry="4.4310002"
       id="ellipse22991"
       style="fill:#fb8072;fill-opacity:0.98400005;stroke:none;stroke-width:2;stroke-linecap:round;stroke-linejoin:round" />
    <ellipse
       cx="111.249"
       cy="46.300999"
       rx="4.7859998"
       ry="4.4310002"
       id="ellipse22993"
       style="fill:#fccde5;fill-opacity:1;stroke:none;stroke-width:2;stroke-linecap:round;stroke-linejoin:round" />
    <ellipse
       cx="87.757004"
       cy="39.617001"
       rx="4.7859998"
       ry="4.4310002"
       id="ellipse22995"
       style="fill:#fccde5;fill-opacity:1;stroke:none;stroke-width:2;stroke-linecap:round;stroke-linejoin:round" />
    <ellipse
       cx="73.831001"
       cy="122.594"
       rx="4.7859998"
       ry="4.4310002"
       id="ellipse22997"
       style="fill:#8dd3c7;fill-opacity:1;stroke:none;stroke-width:2;stroke-linecap:round;stroke-linejoin:round" />
    <ellipse
       cx="99.417999"
       cy="57.887001"
       rx="4.7859998"
       ry="4.4310002"
       id="ellipse22999"
       style="fill:#bc80bd;fill-opacity:0.95999995;stroke:none;stroke-width:2;stroke-linecap:round;stroke-linejoin:round" />
    <ellipse
       cx="125.859"
       cy="50.792"
       rx="4.7859998"
       ry="4.4310002"
       id="ellipse23001"
       style="fill:#ffed6f;fill-opacity:0.98400005;stroke:none;stroke-width:2;stroke-linecap:round;stroke-linejoin:round" />
    <ellipse
       cx="101.593"
       cy="35.469002"
       rx="4.7859998"
       ry="4.4310002"
       id="ellipse23003"
       style="fill:#fccde5;fill-opacity:1;stroke:none;stroke-width:2;stroke-linecap:round;stroke-linejoin:round" />
    <ellipse
       cx="57.146"
       cy="121.751"
       rx="4.7859998"
       ry="4.4310002"
       id="ellipse23005"
       style="fill:#8dd3c7;fill-opacity:1;stroke:none;stroke-width:2;stroke-linecap:round;stroke-linejoin:round" />
    <path
       d="m 118.317,59.737 c -0.489,-1.321 -1.282,-2.509 -1.467,-3.964 -0.213,-1.668 -0.296,-3.749 0.561,-5.531 1.122,-2.333 4.729,-5.603 6.816,-6.68 1.314,-0.678 2.395,-0.738 3.722,-0.667 1.571,0.084 3.745,0.66 5.076,1.483 1.138,0.704 2.148,1.764 2.623,2.832 0.438,0.987 0.498,2.05 0.292,3.279 -0.293,1.744 -1.27,4.378 -2.716,6.052 -1.581,1.829 -4.442,3.752 -6.68,4.258 -1.92,0.434 -4.458,0.233 -5.784,-0.714 -1.21,-0.864 -1.419,-2.909 -2.128,-4.363"
       id="path23027"
       style="fill:#ffed6f;fill-opacity:0.128;stroke:none;stroke-width:2;stroke-linecap:round;stroke-linejoin:round"
       inkscape:connector-curvature="0" />
    <path
       d="m 176.40675,114.05815 c 0,0 8.15439,3.10394 9.95626,6.66891 1.13836,2.25221 -0.24419,5.0413 -0.33781,7.56312 -0.15857,4.27164 -0.3792,12.81815 -0.3792,12.81815"
       id="path23031"
       style="fill:none;fill-opacity:0.972;stroke:#ffffb3;stroke-width:2;stroke-linecap:round;stroke-linejoin:round;stroke-opacity:0.97254902"
       inkscape:connector-curvature="0"
       sodipodi:nodetypes="caac" />
    <path
       d="m 202.68778,90.514491 c -0.002,0.07033 -0.34044,13.552979 -0.36695,15.383769 -0.0661,4.56501 -0.17613,12.54786 -0.16932,13.70118 0.0197,3.33791 0.0572,8.184 0.0435,8.69154 -0.11942,4.43106 -0.23824,8.86223 -0.35704,13.29407"
       id="path23033"
       style="fill:none;stroke:#fb8072;stroke-width:2;stroke-linecap:round;stroke-linejoin:round;stroke-opacity:0.98431373"
       inkscape:connector-curvature="0"
       sodipodi:nodetypes="csssc" />
    <path
       d="m 218.87972,90.796115 c -0.002,0.09609 -0.29758,13.706955 -0.37749,15.270415 -0.20768,4.06323 -0.57805,11.32224 -0.59786,12.63079 -0.0485,3.20482 -0.10979,7.40625 -0.12506,8.01781 -0.11512,4.61133 -0.23038,9.2221 -0.34631,13.83287"
       id="path23035"
       style="fill:none;stroke:#bebada;stroke-width:2;stroke-linecap:round;stroke-linejoin:round;stroke-opacity:0.95294118"
       inkscape:connector-curvature="0"
       sodipodi:nodetypes="csssc" />
    <path
       d="m 235.27519,90.747398 c -0.003,0.104625 0.1155,13.702262 0.0539,15.071412 -0.19573,4.35016 -0.59551,13.25911 -0.60381,15.13643 -0.0112,2.53329 -0.0224,5.09407 -0.0336,5.54265 -0.11684,4.68239 -0.23378,9.3649 -0.35067,14.04811"
       id="path23037"
       style="fill:none;stroke:#80b1d3;stroke-width:2;stroke-linecap:round;stroke-linejoin:round;stroke-opacity:0.97254902"
       inkscape:connector-curvature="0"
       sodipodi:nodetypes="csssc" />
    <path
       d="m 252.04634,90.709244 c -0.002,0.09577 -0.021,14.234646 -0.0479,15.666496 -0.0768,4.08988 -0.22064,11.86381 -0.24271,13.23131 -0.0477,2.95751 -0.10531,6.62703 -0.12015,7.21862 -0.1156,4.60714 -0.23059,9.21439 -0.3456,13.82233"
       id="path23039"
       style="fill:none;stroke:#fdb462;stroke-width:2;stroke-linecap:round;stroke-linejoin:round;stroke-opacity:0.90588235"
       inkscape:connector-curvature="0"
       sodipodi:nodetypes="csssc" />
    <path
       d="m 268.59559,91.202445 c -0.003,0.104751 0.0473,14.802665 0.008,16.770275 -0.0794,3.98405 -0.19878,10.05091 -0.21882,11.17068 -0.0461,2.57776 -0.1011,5.72073 -0.11458,6.20901 -0.13151,4.76309 -0.26252,9.52671 -0.39425,14.28959"
       id="path23041"
       style="fill:none;stroke:#bc80bd;stroke-width:2;stroke-linecap:round;stroke-linejoin:round;stroke-opacity:0.96078431"
       inkscape:connector-curvature="0"
       sodipodi:nodetypes="csssc" />
    <path
       d="m 299.37322,99.876568 c 0,0 -11.3199,4.252392 -14.04691,9.124592 -1.72386,3.07992 -0.051,7.06254 -0.27335,10.58506 -0.13133,2.08089 -0.49545,4.14274 -0.62596,6.22368 -0.29935,4.77315 -0.35904,14.3431 -0.35904,14.3431"
       id="path23043"
       style="fill:none;stroke:#b3de69;stroke-width:2;stroke-linecap:round;stroke-linejoin:round;stroke-opacity:0.94901961"
       inkscape:connector-curvature="0"
       sodipodi:nodetypes="caaac" />
    <path
       d="m 300.41005,90.297692 c 0,0 -0.83605,9.184656 0.51031,10.419688 3.09049,2.83494 8.84887,5.50204 8.77931,7.16014 -0.15914,3.79314 -0.58361,9.27988 -0.54501,9.88634 0.106,1.66527 0.0767,3.96304 -0.84609,4.28748 -2.27751,0.80075 -7.08545,2.77291 -8.17059,4.29588 -2.62134,3.67899 -0.47401,12.80378 -0.47401,12.80378"
       id="path23045"
       style="fill:none;stroke:#fccde5;stroke-width:2;stroke-linecap:round;stroke-linejoin:round;stroke-opacity:1"
       inkscape:connector-curvature="0"
       sodipodi:nodetypes="csssssc" />
    <path
       d="m 309.20705,121.88662 c 0,0 6.34327,2.92011 7.72056,5.4837 1.92826,3.58913 -0.35661,11.7782 -0.35661,11.7782"
       id="path23047"
       style="fill:none;stroke:#ccebc5;stroke-width:2;stroke-linecap:round;stroke-linejoin:round;stroke-opacity:0.9254902"
       inkscape:connector-curvature="0"
       sodipodi:nodetypes="cac" />
    <path
       d="m 334.58069,89.903574 c -0.006,0.25585 0.0718,17.433966 0.0738,19.772986 0.004,3.90292 0.0172,9.12191 0.0331,10.37093 0.0385,3.01371 0.0949,6.53193 0.0691,7.56202 -0.0966,3.85524 -0.19281,7.71063 -0.28905,11.56649"
       id="path23049"
       style="fill:none;stroke:#ffed6f;stroke-width:2;stroke-linecap:round;stroke-linejoin:round;stroke-opacity:0.956"
       inkscape:connector-curvature="0"
       sodipodi:nodetypes="csssc" />
    <path
       d="m 178.99173,90.968457 c 0,0 -0.71424,13.202953 -0.74278,14.130043 -0.0673,2.18614 -0.31279,6.17641 -1.20255,8.32354 -1.18657,2.86337 -4.39547,4.53064 -5.71381,7.33577 -1.27631,2.71573 -1.57278,5.81265 -1.93757,8.79109 -0.50655,4.13596 -0.33502,12.4961 -0.33502,12.4961"
       id="path23029"
       style="fill:none;stroke:#8dd3c7;stroke-width:2;stroke-linecap:round;stroke-linejoin:round;stroke-opacity:0.98400005"
       inkscape:connector-curvature="0"
       sodipodi:nodetypes="cssaac" />
  </g>
</svg>
