<?xml version="1.0" encoding="UTF-8" standalone="no"?>
<!-- Created with Skedio (http://skedio.shturmsoft.com/) -->

<svg
   xmlns:dc="http://purl.org/dc/elements/1.1/"
   xmlns:cc="http://creativecommons.org/ns#"
   xmlns:rdf="http://www.w3.org/1999/02/22-rdf-syntax-ns#"
   xmlns:svg="http://www.w3.org/2000/svg"
   xmlns="http://www.w3.org/2000/svg"
   xmlns:sodipodi="http://sodipodi.sourceforge.net/DTD/sodipodi-0.dtd"
   xmlns:inkscape="http://www.inkscape.org/namespaces/inkscape"
   version="1.1"
   width="301.25476pt"
   height="119.77708pt"
   viewBox="0 0 301.25476 119.77708"
   id="svg23052"
   sodipodi:docname="__24_merge_final.svg"
   inkscape:version="0.92.2 5c3e80d, 2017-08-06">
  <metadata
     id="metadata23058">
    <rdf:RDF>
      <cc:Work
         rdf:about="">
        <dc:format>image/svg+xml</dc:format>
        <dc:type
           rdf:resource="http://purl.org/dc/dcmitype/StillImage" />
        <dc:title></dc:title>
      </cc:Work>
    </rdf:RDF>
  </metadata>
  <defs
     id="defs23056" />
  <sodipodi:namedview
     pagecolor="#ffffff"
     bordercolor="#666666"
     borderopacity="1"
     objecttolerance="10"
     gridtolerance="10"
     guidetolerance="10"
     inkscape:pageopacity="0"
     inkscape:pageshadow="2"
     inkscape:window-width="1221"
     inkscape:window-height="668"
     id="namedview23054"
     showgrid="false"
     inkscape:zoom="2.35113"
     inkscape:cx="306.53652"
     inkscape:cy="65.429382"
     inkscape:window-x="41"
     inkscape:window-y="94"
     inkscape:window-maximized="0"
     inkscape:current-layer="layer1"
     fit-margin-top="0"
     fit-margin-left="0"
     fit-margin-right="0"
     fit-margin-bottom="0" />
  <g
     id="layer1"
     transform="translate(-27.04376,-23.282166)">
    <path
       d="m 113.87511,113.22714 c 0,0 7.73442,-4.58941 12.68843,-12.72323 4.95401,-8.133815 12.09545,-24.644425 11.95344,-37.305237 -0.14201,-12.660812 -1.4384,-26.953445 -12.01116,-34.780551 -10.57276,-7.827106 -26.20445,-5.340059 -42.104565,-1.527435 -15.900115,3.812624 -39.790968,15.351012 -48.93311,27.175323 -9.142142,11.824311 -8.286877,22.258163 -8.419633,32.636748 -0.132756,10.378585 2.528564,21.116582 6.427174,27.839012 3.89861,6.72243 8.858971,9.44484 13.252546,12.2624 4.393575,2.81756 5.002474,4.30726 12.245766,5.0888 7.243292,0.78154 29.965102,-5.41803 29.965102,-5.41803"
       id="path23007"
       style="fill:#8dd3c7;fill-opacity:0.26800005;stroke:none;stroke-width:2;stroke-linecap:round;stroke-linejoin:round"
       inkscape:connector-curvature="0"
       sodipodi:nodetypes="csssssssssc" />
    <ellipse
       cx="70.777"
       cy="65.112999"
       rx="4.7859998"
       ry="4.4310002"
       id="ellipse22985"
       style="fill:#8dd3c7;fill-opacity:1;stroke:none;stroke-width:2;stroke-linecap:round;stroke-linejoin:round" />
    <ellipse
       cx="57.397999"
       cy="103.643"
       rx="4.7859998"
       ry="4.4310002"
       id="ellipse22987"
       style="fill:#8dd3c7;fill-opacity:1;stroke:none;stroke-width:2;stroke-linecap:round;stroke-linejoin:round" />
    <ellipse
       cx="39.179001"
       cy="91.580002"
       rx="4.7859998"
       ry="4.4310002"
       id="ellipse22989"
       style="fill:#8dd3c7;fill-opacity:1;stroke:none;stroke-width:2;stroke-linecap:round;stroke-linejoin:round" />
    <ellipse
       cx="78.300003"
       cy="109.869"
       rx="4.7859998"
       ry="4.4310002"
       id="ellipse22991"
       style="fill:#8dd3c7;fill-opacity:1;stroke:none;stroke-width:2;stroke-linecap:round;stroke-linejoin:round" />
    <ellipse
       cx="111.249"
       cy="46.300999"
       rx="4.7859998"
       ry="4.4310002"
       id="ellipse22993"
       style="fill:#8dd3c7;fill-opacity:1;stroke:none;stroke-width:2;stroke-linecap:round;stroke-linejoin:round" />
    <ellipse
       cx="87.757004"
       cy="39.617001"
       rx="4.7859998"
       ry="4.4310002"
       id="ellipse22995"
       style="fill:#8dd3c7;fill-opacity:1;stroke:none;stroke-width:2;stroke-linecap:round;stroke-linejoin:round" />
    <ellipse
       cx="73.831001"
       cy="122.594"
       rx="4.7859998"
       ry="4.4310002"
       id="ellipse22997"
       style="fill:#8dd3c7;fill-opacity:1;stroke:none;stroke-width:2;stroke-linecap:round;stroke-linejoin:round" />
    <ellipse
       cx="99.417999"
       cy="57.887001"
       rx="4.7859998"
       ry="4.4310002"
       id="ellipse22999"
       style="fill:#8dd3c7;fill-opacity:1;stroke:none;stroke-width:2;stroke-linecap:round;stroke-linejoin:round" />
    <ellipse
       cx="125.859"
       cy="50.792"
       rx="4.7859998"
       ry="4.4310002"
       id="ellipse23001"
       style="fill:#8dd3c7;fill-opacity:1;stroke:none;stroke-width:2;stroke-linecap:round;stroke-linejoin:round" />
    <ellipse
       cx="101.593"
       cy="35.469002"
       rx="4.7859998"
       ry="4.4310002"
       id="ellipse23003"
       style="fill:#8dd3c7;fill-opacity:1;stroke:none;stroke-width:2;stroke-linecap:round;stroke-linejoin:round" />
    <ellipse
       cx="57.146"
       cy="121.751"
       rx="4.7859998"
       ry="4.4310002"
       id="ellipse23005"
       style="fill:#8dd3c7;fill-opacity:1;stroke:none;stroke-width:2;stroke-linecap:round;stroke-linejoin:round" />
    <path
       d="m 176.40675,130.14727 c 0,0 8.6884,0.9592 9.95626,2.83508 1.26786,1.87588 -0.21177,1.77148 -0.33781,3.21521 -0.12604,1.44373 -0.3792,5.44924 -0.3792,5.44924"
       id="path23031"
       style="fill:none;fill-opacity:0.972;stroke:#ffffb3;stroke-width:1.99999988;stroke-linecap:round;stroke-linejoin:round;stroke-opacity:0.97254902"
       inkscape:connector-curvature="0"
       sodipodi:nodetypes="cssc" />
    <path
       d="m 194.71289,111.43697 c 0,0 7.00773,7.71512 7.86571,10.5646 0.85798,2.84948 -0.18411,2.9265 -0.25777,4.67678 -0.0737,1.75028 -0.1556,4.23764 -0.16932,5.82463 -0.0137,1.58699 0.0835,2.13579 0.0435,3.69494 -0.04,1.55915 -0.35704,5.65154 -0.35704,5.65154"
       id="path23033"
       style="fill:none;stroke:#fb8072;stroke-width:1.99999988;stroke-linecap:round;stroke-linejoin:round;stroke-opacity:0.98431373"
       inkscape:connector-curvature="0"
       sodipodi:nodetypes="cssssc" />
    <path
       d="m 205.48191,100.99067 c 0,0 1.37608,0.0863 3.76841,1.07477 2.39233,0.98852 8.03759,1.84287 10.15812,5.62676 2.12053,3.78389 -0.45974,11.2238 -0.6246,14.39948 -0.16486,3.17568 -0.13807,2.98611 -0.28161,4.65821 -0.14354,1.6721 -0.48958,3.90465 -0.59786,5.36958 -0.10828,1.46493 -0.0511,1.86002 -0.12506,3.40852 -0.074,1.5485 -0.34631,5.8806 -0.34631,5.8806"
       id="path23035"
       style="fill:none;stroke:#bebada;stroke-width:1.99999988;stroke-linecap:round;stroke-linejoin:round;stroke-opacity:0.95294118"
       inkscape:connector-curvature="0"
       sodipodi:nodetypes="cssssssc" />
    <path
       d="m 246.14492,116.07768 c 0,0 -9.41081,3.5717 -10.83846,6.0095 -1.42765,2.4378 0.10394,2.72244 0.0226,4.55739 -0.0813,1.83495 -0.5246,4.96699 -0.60381,6.43478 -0.0792,1.46779 0.0171,0.96739 -0.0336,2.35629 -0.0507,1.3889 -0.35067,5.97211 -0.35067,5.97211"
       id="path23037"
       style="fill:none;stroke:#80b1d3;stroke-width:1.99999988;stroke-linecap:round;stroke-linejoin:round;stroke-opacity:0.97254902"
       inkscape:connector-curvature="0"
       sodipodi:nodetypes="cssssc" />
    <path
       d="m 226.52669,94.531237 c 0,0 13.64368,-0.16113 17.57527,4.152256 3.93159,4.313387 0.60651,12.915807 2.35731,16.794197 1.7508,3.87839 4.80887,4.40059 5.57904,6.50893 0.77017,2.10834 0.005,3.14113 -0.0399,4.89472 -0.045,1.75359 -0.18308,4.17589 -0.24271,5.62487 -0.0596,1.44898 -0.0471,1.57766 -0.12015,3.06877 -0.073,1.49111 -0.3456,5.87613 -0.3456,5.87613"
       id="path23039"
       style="fill:none;stroke:#fdb462;stroke-width:1.99999988;stroke-linecap:round;stroke-linejoin:round;stroke-opacity:0.90588235"
       inkscape:connector-curvature="0"
       sodipodi:nodetypes="cssssssc" />
    <path
       d="m 277.52746,115.14787 c 0,0 -7.61015,3.69302 -8.92686,6.21579 -1.31671,2.52277 0.0446,4.37197 0.003,6.19658 -0.0416,1.82461 -0.16372,3.51744 -0.21882,4.74887 -0.0551,1.23143 -0.0359,1.18675 -0.11458,2.63955 -0.0787,1.4528 -0.39425,6.07478 -0.39425,6.07478"
       id="path23041"
       style="fill:none;stroke:#bc80bd;stroke-width:1.99999988;stroke-linecap:round;stroke-linejoin:round;stroke-opacity:0.96078431"
       inkscape:connector-curvature="0"
       sodipodi:nodetypes="cssssc" />
    <path
       d="m 299.37322,124.11843 c 0,0 -12.04474,1.40826 -14.04691,3.87902 -2.00217,2.47076 -0.0975,3.3083 -0.27335,4.49991 -0.17582,1.19161 -0.41257,1.19021 -0.62596,2.6458 -0.21339,1.45559 -0.35904,6.09751 -0.35904,6.09751"
       id="path23043"
       style="fill:none;stroke:#b3de69;stroke-width:1.99999988;stroke-linecap:round;stroke-linejoin:round;stroke-opacity:0.94901961"
       inkscape:connector-curvature="0"
       sodipodi:nodetypes="csssc" />
    <path
       d="m 270.22907,69.016953 c 0,0 27.7307,24.273884 29.91213,32.908847 2.18143,8.63496 1.37712,5.28928 -2.15585,8.70278 -3.53297,3.4135 -19.86924,-3.02864 -20.06598,4.24415 -0.19674,7.27279 19.32616,2.71885 22.34988,6.00606 3.02372,3.28721 -0.75233,1.95787 0.65111,3.59708 1.40344,1.63921 7.59287,1.12623 8.77931,3.0439 1.18644,1.91767 -0.25547,3.20268 -0.54501,4.20287 -0.28954,1.00019 0.50145,0.73733 -0.84609,1.82269 -1.34754,1.08536 -6.652,0.0909 -8.17059,1.82625 -1.51859,1.73536 -0.47401,5.44312 -0.47401,5.44312"
       id="path23045"
       style="fill:none;stroke:#fccde5;stroke-width:1.99999988;stroke-linecap:round;stroke-linejoin:round;stroke-opacity:1"
       inkscape:connector-curvature="0"
       sodipodi:nodetypes="csssssssssc" />
    <path
       d="m 309.20705,133.4753 c 0,0 6.4834,0.53533 7.72056,2.33122 1.23716,1.79589 -0.35661,5.00713 -0.35661,5.00713"
       id="path23047"
       style="fill:none;stroke:#ccebc5;stroke-width:1.99999988;stroke-linecap:round;stroke-linejoin:round;stroke-opacity:0.9254902"
       inkscape:connector-curvature="0"
       sodipodi:nodetypes="csc" />
    <path
       d="m 298.26217,110.79715 c 0,0 18.97902,2.015 23.5747,4.55936 4.59568,2.54436 4.36298,3.59294 5.11983,5.48949 0.75685,1.89655 0.0294,3.21958 0.0419,4.74527 0.0125,1.52569 0.0147,3.13825 0.0331,4.40887 0.0184,1.27062 0.0944,1.85814 0.0691,3.21476 -0.0252,1.35662 -0.28905,4.91713 -0.28905,4.91713"
       id="path23049"
       style="fill:none;stroke:#ffed6f;stroke-width:1.99999988;stroke-linecap:round;stroke-linejoin:round;stroke-opacity:0.956"
       inkscape:connector-curvature="0"
       sodipodi:nodetypes="csssssc" />
    <path
       d="m 273.10004,47.006261 c 0,0 -0.29051,11.529935 -2.90909,21.291207 -2.94289,10.970227 -41.82686,5.847844 -43.19173,15.171343 -0.55287,3.776678 2.07331,6.616224 -1.39635,10.876659 -3.46966,4.260435 -15.8485,5.042635 -20.80292,7.16199 -4.95442,2.11936 -7.43565,2.72377 -9.17832,4.74179 -1.74267,2.01802 0.56491,2.209 -1.84008,5.36006 -2.40499,3.15106 -13.00789,6.96638 -14.97637,10.19443 -1.96848,3.22805 -0.24761,3.18515 -0.55623,4.53462 -0.30862,1.34947 -0.10316,2.23164 -1.20255,3.53849 -1.09939,1.30685 -4.46408,1.84192 -5.71381,3.11857 -1.24973,1.27665 -1.51282,2.20632 -1.93757,3.73725 -0.42475,1.53093 -0.33502,5.31233 -0.33502,5.31233"
       id="path23029"
       style="fill:none;stroke:#8dd3c7;stroke-width:1.99999988;stroke-linecap:round;stroke-linejoin:round;stroke-opacity:0.98400005"
       inkscape:connector-curvature="0"
       sodipodi:nodetypes="csssssssssssc" />
  </g>
</svg>
