<?xml version="1.0" encoding="UTF-8" standalone="no"?>
<!-- Created with Skedio (http://skedio.shturmsoft.com/) -->

<svg
   xmlns:dc="http://purl.org/dc/elements/1.1/"
   xmlns:cc="http://creativecommons.org/ns#"
   xmlns:rdf="http://www.w3.org/1999/02/22-rdf-syntax-ns#"
   xmlns:svg="http://www.w3.org/2000/svg"
   xmlns="http://www.w3.org/2000/svg"
   xmlns:sodipodi="http://sodipodi.sourceforge.net/DTD/sodipodi-0.dtd"
   xmlns:inkscape="http://www.inkscape.org/namespaces/inkscape"
   version="1.1"
   width="309.86963pt"
   height="117.44445pt"
   viewBox="0 0 309.86963 117.44445"
   id="svg23052"
   sodipodi:docname="__24_merge_pre_final.svg"
   inkscape:version="0.92.2 5c3e80d, 2017-08-06">
  <metadata
     id="metadata23058">
    <rdf:RDF>
      <cc:Work
         rdf:about="">
        <dc:format>image/svg+xml</dc:format>
        <dc:type
           rdf:resource="http://purl.org/dc/dcmitype/StillImage" />
        <dc:title></dc:title>
      </cc:Work>
    </rdf:RDF>
  </metadata>
  <defs
     id="defs23056" />
  <sodipodi:namedview
     pagecolor="#ffffff"
     bordercolor="#666666"
     borderopacity="1"
     objecttolerance="10"
     gridtolerance="10"
     guidetolerance="10"
     inkscape:pageopacity="0"
     inkscape:pageshadow="2"
     inkscape:window-width="1221"
     inkscape:window-height="668"
     id="namedview23054"
     showgrid="false"
     inkscape:zoom="2.35113"
     inkscape:cx="290.89268"
     inkscape:cy="65.429374"
     inkscape:window-x="41"
     inkscape:window-y="94"
     inkscape:window-maximized="0"
     inkscape:current-layer="layer1"
     fit-margin-top="0"
     fit-margin-left="0"
     fit-margin-right="0"
     fit-margin-bottom="0" />
  <g
     id="layer1"
     transform="translate(-26.016823,-25.614786)">
    <path
       d="m 109.81904,66.258183 c 0,0 -15.004762,-3.603692 -22.434381,-2.429415 -7.800748,1.232935 -14.659972,13.422762 -21.620203,9.690875 -4.133073,-2.216041 -3.44278,-9.326459 -2.312019,-13.877778 1.810269,-7.286344 8.503909,-12.452805 13.66885,-17.901775 4.09375,-4.318873 8.378681,-8.703115 13.589281,-11.577329 3.97755,-2.194052 8.483707,-4.458623 13.008752,-4.060208 4.35702,0.383621 8.06941,3.525824 11.64986,6.038018 7.91436,5.553045 21.68402,10.013487 21.31141,19.674471 -0.15465,4.009841 -5.81803,5.750073 -9.4481,7.460435 -2.888,1.360724 -9.3626,2.017585 -9.3626,2.017585"
       id="path23023"
       style="fill:#fccde5;fill-opacity:0.28000004;stroke:none;stroke-width:2;stroke-linecap:round;stroke-linejoin:round"
       inkscape:connector-curvature="0"
       sodipodi:nodetypes="caaaaaaaaac" />
    <path
       d="m 40.404626,123.57236 c 0,0 -5.139156,-3.29763 -6.879034,-5.7195 -3.496519,-4.86708 -6.558107,-10.77756 -6.48056,-16.7699 0.07305,-5.645141 1.862269,-12.432734 6.511852,-15.634973 6.269412,-4.31784 15.367412,-2.204458 22.827001,-0.686631 9.540064,1.941148 20.106339,4.899823 26.529096,12.216179 3.378873,3.848975 4.48768,9.550185 4.564709,14.671265 0.06513,4.3297 -1.061101,8.92598 -3.484494,12.51453 -1.689367,2.50162 -4.525906,4.08338 -7.184875,5.51234 -2.061824,1.10804 -4.308136,2.07369 -6.639044,2.28758 -5.452806,0.50036 -16.245585,-2.43558 -16.245585,-2.43558"
       id="path23007"
       style="fill:#8dd3c7;fill-opacity:0.26800005;stroke:none;stroke-width:2;stroke-linecap:round;stroke-linejoin:round"
       inkscape:connector-curvature="0"
       sodipodi:nodetypes="caaaaaaaaac" />
    <ellipse
       cx="70.777"
       cy="65.112999"
       rx="4.7859998"
       ry="4.4310002"
       id="ellipse22985"
       style="fill:#fccde5;fill-opacity:1;stroke:none;stroke-width:2;stroke-linecap:round;stroke-linejoin:round" />
    <ellipse
       cx="57.397999"
       cy="103.643"
       rx="4.7859998"
       ry="4.4310002"
       id="ellipse22987"
       style="fill:#8dd3c7;fill-opacity:1;stroke:none;stroke-width:2;stroke-linecap:round;stroke-linejoin:round" />
    <ellipse
       cx="39.179001"
       cy="91.580002"
       rx="4.7859998"
       ry="4.4310002"
       id="ellipse22989"
       style="fill:#8dd3c7;fill-opacity:1;stroke:none;stroke-width:2;stroke-linecap:round;stroke-linejoin:round" />
    <ellipse
       cx="78.300003"
       cy="109.869"
       rx="4.7859998"
       ry="4.4310002"
       id="ellipse22991"
       style="fill:#8dd3c7;fill-opacity:1;stroke:none;stroke-width:2;stroke-linecap:round;stroke-linejoin:round" />
    <ellipse
       cx="111.249"
       cy="46.300999"
       rx="4.7859998"
       ry="4.4310002"
       id="ellipse22993"
       style="fill:#fccde5;fill-opacity:1;stroke:none;stroke-width:2;stroke-linecap:round;stroke-linejoin:round" />
    <ellipse
       cx="87.757004"
       cy="39.617001"
       rx="4.7859998"
       ry="4.4310002"
       id="ellipse22995"
       style="fill:#fccde5;fill-opacity:1;stroke:none;stroke-width:2;stroke-linecap:round;stroke-linejoin:round" />
    <ellipse
       cx="73.831001"
       cy="122.594"
       rx="4.7859998"
       ry="4.4310002"
       id="ellipse22997"
       style="fill:#8dd3c7;fill-opacity:1;stroke:none;stroke-width:2;stroke-linecap:round;stroke-linejoin:round" />
    <ellipse
       cx="99.417999"
       cy="57.887001"
       rx="4.7859998"
       ry="4.4310002"
       id="ellipse22999"
       style="fill:#fccde5;fill-opacity:1;stroke:none;stroke-width:2;stroke-linecap:round;stroke-linejoin:round" />
    <ellipse
       cx="125.859"
       cy="50.792"
       rx="4.7859998"
       ry="4.4310002"
       id="ellipse23001"
       style="fill:#fccde5;fill-opacity:1;stroke:none;stroke-width:2;stroke-linecap:round;stroke-linejoin:round" />
    <ellipse
       cx="101.593"
       cy="35.469002"
       rx="4.7859998"
       ry="4.4310002"
       id="ellipse23003"
       style="fill:#fccde5;fill-opacity:1;stroke:none;stroke-width:2;stroke-linecap:round;stroke-linejoin:round" />
    <ellipse
       cx="57.146"
       cy="121.751"
       rx="4.7859998"
       ry="4.4310002"
       id="ellipse23005"
       style="fill:#8dd3c7;fill-opacity:1;stroke:none;stroke-width:2;stroke-linecap:round;stroke-linejoin:round" />
    <path
       d="m 176.40675,130.14727 c 0,0 8.02398,-0.0238 9.95626,2.83508 0.60345,0.89283 -0.24409,2.14166 -0.33781,3.21521 -0.15835,1.81391 -0.3792,5.44924 -0.3792,5.44924"
       id="path23031"
       style="fill:none;fill-opacity:0.972;stroke:#ffffb3;stroke-width:1.99999988;stroke-linecap:round;stroke-linejoin:round;stroke-opacity:0.97254902"
       inkscape:connector-curvature="0"
       sodipodi:nodetypes="caac" />
    <path
       d="m 194.71289,111.43697 c 0,0 6.59989,6.36064 7.86571,10.5646 0.45014,1.49499 -0.19212,3.11687 -0.25777,4.67678 -0.0817,1.94065 -0.15253,3.88234 -0.16932,5.82463 -0.0106,1.23169 0.0751,2.46361 0.0435,3.69494 -0.0484,1.88698 -0.35704,5.65154 -0.35704,5.65154"
       id="path23033"
       style="fill:none;stroke:#fb8072;stroke-width:1.99999988;stroke-linecap:round;stroke-linejoin:round;stroke-opacity:0.98431373"
       inkscape:connector-curvature="0"
       sodipodi:nodetypes="caaaac" />
    <path
       d="m 205.48191,100.99067 c 0,0 2.56118,0.57594 3.76841,1.07477 3.57743,1.47821 8.26578,2.25005 10.15812,5.62676 2.34873,4.19108 -0.37553,9.6016 -0.6246,14.39948 -0.0806,1.55348 -0.14856,3.10834 -0.28161,4.65821 -0.15403,1.79432 -0.46511,3.57356 -0.59786,5.36958 -0.0838,1.13384 -0.0708,2.27288 -0.12506,3.40852 -0.0937,1.96136 -0.34631,5.8806 -0.34631,5.8806"
       id="path23035"
       style="fill:none;stroke:#bebada;stroke-width:1.99999988;stroke-linecap:round;stroke-linejoin:round;stroke-opacity:0.95294118"
       inkscape:connector-curvature="0"
       sodipodi:nodetypes="caaaaaac" />
    <path
       d="m 246.14492,116.07768 c 0,0 -8.75086,2.4448 -10.83846,6.0095 -0.7677,1.3109 0.0899,3.03973 0.0226,4.55739 -0.0954,2.15224 -0.48773,4.28356 -0.60381,6.43478 -0.0423,0.78437 -0.005,1.5713 -0.0336,2.35629 -0.0727,1.99281 -0.35067,5.97211 -0.35067,5.97211"
       id="path23037"
       style="fill:none;stroke:#80b1d3;stroke-width:1.99999988;stroke-linecap:round;stroke-linejoin:round;stroke-opacity:0.97254902"
       inkscape:connector-curvature="0"
       sodipodi:nodetypes="caaaac" />
    <path
       d="m 226.52669,94.531237 c 0,0 13.52015,-0.296658 17.57527,4.152256 3.80805,4.177857 0.0314,11.641907 2.35731,16.794197 1.17573,2.6045 4.59855,3.82483 5.57904,6.50893 0.55984,1.53257 0.002,3.26363 -0.0399,4.89472 -0.0481,1.87608 -0.16555,3.74976 -0.24271,5.62487 -0.0421,1.02284 -0.0701,2.04629 -0.12015,3.06877 -0.096,1.95975 -0.3456,5.87613 -0.3456,5.87613"
       id="path23039"
       style="fill:none;stroke:#fdb462;stroke-width:1.99999988;stroke-linecap:round;stroke-linejoin:round;stroke-opacity:0.90588235"
       inkscape:connector-curvature="0"
       sodipodi:nodetypes="caaaaaac" />
    <path
       d="m 277.52746,115.14787 c 0,0 -7.24916,3.00136 -8.92686,6.21579 -0.95572,1.83112 0.05,4.13159 0.003,6.19658 -0.0361,1.58423 -0.14799,3.16582 -0.21882,4.74887 -0.0394,0.8798 -0.067,1.76016 -0.11458,2.63955 -0.10972,2.02622 -0.39425,6.07478 -0.39425,6.07478"
       id="path23041"
       style="fill:none;stroke:#bc80bd;stroke-width:1.99999988;stroke-linecap:round;stroke-linejoin:round;stroke-opacity:0.96078431"
       inkscape:connector-curvature="0"
       sodipodi:nodetypes="caaaac" />
    <path
       d="m 299.37322,124.11843 c 0,0 -10.98867,0.10503 -14.04691,3.87902 -0.9461,1.16752 -0.054,3.01327 -0.27335,4.49991 -0.13229,0.89657 -0.4945,1.74911 -0.62596,2.6458 -0.29533,2.01449 -0.35904,6.09751 -0.35904,6.09751"
       id="path23043"
       style="fill:none;stroke:#b3de69;stroke-width:1.99999988;stroke-linecap:round;stroke-linejoin:round;stroke-opacity:0.94901961"
       inkscape:connector-curvature="0"
       sodipodi:nodetypes="caaac" />
    <path
       d="m 300.01665,98.055748 c 0,0 0.89727,9.499402 -2.0313,12.572832 -4.71619,4.94946 -19.88111,-2.58999 -20.06598,4.24415 -0.2086,7.71145 17.12736,0.32844 22.34988,6.00606 0.82492,0.89681 -0.14136,2.67147 0.65111,3.59708 2.0144,2.35281 7.14969,0.40992 8.77931,3.0439 0.74326,1.20135 -0.15219,2.8459 -0.54501,4.20287 -0.18626,0.64342 -0.32443,1.40252 -0.84609,1.82269 -2.17342,1.75056 -6.33277,-0.2739 -8.17059,1.82625 -1.19936,1.37056 -0.47401,5.44312 -0.47401,5.44312"
       id="path23045"
       style="fill:none;stroke:#fccde5;stroke-width:1.99999988;stroke-linecap:round;stroke-linejoin:round;stroke-opacity:1"
       inkscape:connector-curvature="0"
       sodipodi:nodetypes="caaaaaaaac" />
    <path
       d="m 309.20705,133.4753 c 0,0 6.19549,0.11739 7.72056,2.33122 0.94925,1.37796 -0.35661,5.00713 -0.35661,5.00713"
       id="path23047"
       style="fill:none;stroke:#ccebc5;stroke-width:1.99999988;stroke-linecap:round;stroke-linejoin:round;stroke-opacity:0.9254902"
       inkscape:connector-curvature="0"
       sodipodi:nodetypes="cac" />
    <path
       d="m 298.26217,110.79715 c 0,0 16.57239,0.6826 23.5747,4.55936 2.18906,1.21195 4.19243,3.16555 5.11983,5.48949 0.58629,1.46916 0.029,3.1635 0.0419,4.74527 0.012,1.46962 0.0118,2.93936 0.0331,4.40887 0.0155,1.07172 0.089,2.14311 0.0691,3.21476 -0.0306,1.64159 -0.28905,4.91713 -0.28905,4.91713"
       id="path23049"
       style="fill:none;stroke:#ffed6f;stroke-width:1.99999988;stroke-linecap:round;stroke-linejoin:round;stroke-opacity:0.956"
       inkscape:connector-curvature="0"
       sodipodi:nodetypes="caaaaac" />
    <path
       d="m 226.20769,78.267823 c 0,0 2.59112,11.77093 -0.60482,16.077647 -4.37035,5.88931 -14.06018,4.277643 -20.80292,7.16199 -3.1661,1.35436 -6.92763,2.13548 -9.17832,4.74179 -1.23465,1.42972 -0.69398,3.85842 -1.84008,5.36006 -3.66388,4.80049 -11.83228,5.03852 -14.97637,10.19443 -0.79286,1.30019 -0.21672,3.05008 -0.55623,4.53462 -0.27773,1.2144 -0.40059,2.5852 -1.20255,3.53849 -1.39683,1.66042 -4.19595,1.56801 -5.71381,3.11857 -0.9816,1.00274 -1.56242,2.38511 -1.93757,3.73725 -0.47435,1.70971 -0.33502,5.31233 -0.33502,5.31233"
       id="path23029"
       style="fill:none;stroke:#8dd3c7;stroke-width:1.99999988;stroke-linecap:round;stroke-linejoin:round;stroke-opacity:0.98400005"
       inkscape:connector-curvature="0"
       sodipodi:nodetypes="caaaaaaaaac" />
  </g>
</svg>
