<?xml version="1.0" encoding="UTF-8" standalone="no"?>
<!-- Created with Skedio (http://skedio.shturmsoft.com/) -->

<svg
   xmlns:dc="http://purl.org/dc/elements/1.1/"
   xmlns:cc="http://creativecommons.org/ns#"
   xmlns:rdf="http://www.w3.org/1999/02/22-rdf-syntax-ns#"
   xmlns:svg="http://www.w3.org/2000/svg"
   xmlns="http://www.w3.org/2000/svg"
   xmlns:sodipodi="http://sodipodi.sourceforge.net/DTD/sodipodi-0.dtd"
   xmlns:inkscape="http://www.inkscape.org/namespaces/inkscape"
   version="1.1"
   width="309.86963pt"
   height="117.44445pt"
   viewBox="0 0 309.86963 117.44445"
   id="svg23052"
   sodipodi:docname="__24.svg"
   inkscape:version="0.92.2 5c3e80d, 2017-08-06">
  <metadata
     id="metadata23058">
    <rdf:RDF>
      <cc:Work
         rdf:about="">
        <dc:format>image/svg+xml</dc:format>
        <dc:type
           rdf:resource="http://purl.org/dc/dcmitype/StillImage" />
        <dc:title></dc:title>
      </cc:Work>
    </rdf:RDF>
  </metadata>
  <defs
     id="defs23056" />
  <sodipodi:namedview
     pagecolor="#ffffff"
     bordercolor="#666666"
     borderopacity="1"
     objecttolerance="10"
     gridtolerance="10"
     guidetolerance="10"
     inkscape:pageopacity="0"
     inkscape:pageshadow="2"
     inkscape:window-width="1221"
     inkscape:window-height="668"
     id="namedview23054"
     showgrid="false"
     inkscape:zoom="1.6625"
     inkscape:cx="167.20108"
     inkscape:cy="63.721967"
     inkscape:window-x="114"
     inkscape:window-y="87"
     inkscape:window-maximized="0"
     inkscape:current-layer="layer1"
     fit-margin-top="0"
     fit-margin-left="0"
     fit-margin-right="0"
     fit-margin-bottom="0" />
  <g
     id="layer1"
     transform="translate(-26.016823,-25.614786)">
    <path
       d="m 110.375,54.723 c -1.964,-1.53 -5.219,-2.6 -5.892,-4.591 -0.688,-2.034 0.473,-5.746 1.979,-7.542 1.497,-1.785 4.832,-3.319 7,-3.226 1.96,0.084 4.362,1.805 5.475,3.117 0.861,1.015 1.346,2.328 1.305,3.534 -0.043,1.301 -0.605,2.905 -1.79,4 -1.784,1.648 -6.233,2.215 -9.35,3.323"
       id="path23025"
       style="fill:#ccebc5;fill-opacity:0.30400002;stroke:none;stroke-width:2;stroke-linecap:round;stroke-linejoin:round"
       inkscape:connector-curvature="0" />
    <path
       d="m 100.252,66.758 c -1.902,0.128 -3.948,0.964 -5.707,0.384 -1.938,-0.639 -4.39,-2.716 -5.292,-4.496 -0.793,-1.564 -0.743,-3.579 -0.382,-5.344 0.396,-1.939 1.744,-4.382 2.956,-5.759 0.945,-1.074 1.957,-1.748 3.249,-2.229 1.523,-0.566 3.746,-0.89 5.436,-0.605 1.615,0.272 3.473,1.213 4.51,2.151 0.809,0.731 1.17,1.566 1.578,2.595 0.507,1.281 1.023,2.989 0.975,4.601 -0.055,1.816 -0.394,4.205 -1.585,5.747 -1.342,1.736 -4.364,2.524 -6.546,3.786"
       id="path23019"
       style="fill:#bc80bd;fill-opacity:0.26400003;stroke:none;stroke-width:2;stroke-linecap:round;stroke-linejoin:round"
       inkscape:connector-curvature="0" />
    <path
       d="m 100.761,44.289 c -1.11,-0.735 -2.502,-0.98 -3.332,-2.204 -1.246,-1.836 -2.273,-6.299 -1.838,-8.814 0.367,-2.121 1.765,-4.19 3.335,-5.461 1.587,-1.285 4.208,-2.361 6.165,-2.174 1.936,0.185 4.581,1.504 5.521,3.233 1.1,2.02 0.526,6.373 -0.389,8.73 -0.774,1.992 -2.195,3.727 -4.005,4.792 -2.089,1.228 -5.445,1.039 -8.167,1.559"
       id="path23023"
       style="fill:#fccde5;fill-opacity:0.28000004;stroke:none;stroke-width:2;stroke-linecap:round;stroke-linejoin:round"
       inkscape:connector-curvature="0" />
    <path
       d="m 91.567,49.367 c -2.96,0.108 -6.654,1.209 -8.881,0.322 -1.764,-0.703 -3.166,-2.402 -3.911,-3.985 -0.738,-1.569 -0.753,-3.68 -0.565,-5.459 0.188,-1.776 0.528,-3.752 1.689,-5.206 1.391,-1.741 4.587,-3.683 6.746,-4.014 1.768,-0.272 3.584,0.267 5.124,1.209 1.817,1.112 4.325,3.507 4.748,5.59 0.418,2.054 -0.897,4.861 -2.127,6.804 -1.235,1.948 -3.519,3.242 -5.278,4.862"
       id="path23021"
       style="fill:#b3de69;fill-opacity:0.30400002;stroke:none;stroke-width:2;stroke-linecap:round;stroke-linejoin:round;stroke-opacity:0.89200003"
       inkscape:connector-curvature="0" />
    <path
       d="m 73.681,76.607 c -3.602,-0.671 -8.351,-0.941 -10.806,-2.015 -1.474,-0.645 -2.362,-1.264 -3.181,-2.37 -0.975,-1.318 -1.709,-3.607 -1.896,-5.299 -0.163,-1.478 0.003,-2.777 0.529,-4.265 0.682,-1.926 2.183,-4.6 3.804,-6.112 1.487,-1.387 3.557,-2.505 5.352,-2.834 1.619,-0.296 3.361,-0.128 4.884,0.613 1.827,0.89 3.886,2.998 5.028,4.989 1.163,2.026 2.03,4.901 1.83,7.096 -0.183,2.017 -1.259,4.116 -2.602,5.62 -1.401,1.569 -3.838,2.333 -5.757,3.5"
       id="path23017"
       style="fill:#fdb462;fill-opacity:0.29600004;stroke:none;stroke-width:2;stroke-linecap:round;stroke-linejoin:round"
       inkscape:connector-curvature="0" />
    <path
       d="m 44.526,99.064 c -3.024,1.111 -6.184,3.456 -9.073,3.334 -2.731,-0.115 -6.295,-1.854 -7.83,-3.652 -1.262,-1.478 -1.572,-3.701 -1.605,-5.612 -0.035,-1.975 0.716,-4.359 1.504,-6.052 0.664,-1.428 1.456,-2.557 2.606,-3.593 1.322,-1.189 3.127,-2.475 5.081,-2.926 2.259,-0.522 5.697,-0.598 7.82,0.536 2.165,1.156 4.291,4.168 4.985,6.447 0.612,2.012 0.419,4.385 -0.43,6.34 -0.972,2.239 -3.797,4.061 -5.696,6.092"
       id="path23015"
       style="fill:#80b1d3;fill-opacity:0.25200004;stroke:none;stroke-width:2;stroke-linecap:round;stroke-linejoin:round"
       inkscape:connector-curvature="0" />
    <path
       d="m 87.886,114.169 c -3.392,0.479 -6.997,1.563 -10.175,1.437 -2.84,-0.113 -6.377,-0.32 -8.008,-1.788 -1.391,-1.253 -2.233,-3.834 -1.907,-5.662 0.37,-2.073 2.659,-4.664 4.824,-5.987 2.401,-1.467 6.451,-2.245 9.261,-1.917 2.52,0.294 5.62,1.483 6.893,3.215 1.189,1.618 1.468,4.565 0.884,6.584 -0.629,2.175 -3.3,3.943 -4.95,5.914"
       id="path23009"
       style="fill:#fb8072;fill-opacity:0.272;stroke:none;stroke-width:2;stroke-linecap:round;stroke-linejoin:round"
       inkscape:connector-curvature="0" />
    <path
       d="m 61.145,110.593 c -3.599,0.261 -8.014,1.615 -10.798,0.784 -2.104,-0.628 -4.087,-1.976 -4.913,-3.757 -0.961,-2.069 -0.758,-6.023 0.407,-8.35 1.215,-2.426 4.429,-4.854 6.998,-5.793 2.364,-0.863 5.488,-0.783 7.693,-0.07 2.005,0.647 4.078,2.007 5.124,3.767 1.154,1.944 1.567,5.46 1.043,7.675 -0.469,1.983 -2.336,3.415 -3.504,5.123"
       id="path23013"
       style="fill:#bebada;fill-opacity:0.18800001;stroke:none;stroke-width:2;stroke-linecap:round;stroke-linejoin:round"
       inkscape:connector-curvature="0" />
    <path
       d="m 60.812,129.797 c -2.355,0.815 -4.778,2.439 -7.065,2.444 -2.157,0.005 -4.96,-0.787 -6.29,-2.147 -1.231,-1.258 -1.86,-3.487 -1.721,-5.429 0.171,-2.394 1.836,-5.865 3.755,-7.785 1.913,-1.913 5.402,-3.284 7.726,-3.729 1.741,-0.333 3.55,-0.17 4.799,0.343 0.994,0.409 1.784,0.924 2.316,1.984 0.915,1.822 1.131,6.45 0.617,9.002 -0.418,2.077 -1.501,3.9 -2.685,5.34 -1.091,1.326 -2.673,2.075 -4.01,3.112"
       id="path23011"
       style="fill:#ffffb3;fill-opacity:0.25600011;stroke:none;stroke-width:2;stroke-linecap:round;stroke-linejoin:round;stroke-opacity:1"
       inkscape:connector-curvature="0" />
    <path
       d="m 73.157,133.928 c -1.817,-0.84 -4.047,-0.975 -5.451,-2.521 -1.834,-2.021 -3.625,-7.063 -3.383,-9.678 0.176,-1.912 1.302,-3.631 2.727,-4.756 1.641,-1.295 4.513,-2.241 6.974,-2.053 2.945,0.224 7.452,2.238 9.422,4.421 1.677,1.858 2.637,5.039 2.488,7.114 -0.123,1.704 -1.31,3.326 -2.348,4.513 -0.952,1.088 -2.106,1.852 -3.5,2.462 -1.666,0.727 -4.158,1.321 -5.969,1.279 -1.527,-0.036 -2.801,-0.738 -4.201,-1.107"
       id="path23007"
       style="fill:#8dd3c7;fill-opacity:0.26800005;stroke:none;stroke-width:2;stroke-linecap:round;stroke-linejoin:round"
       inkscape:connector-curvature="0" />
    <ellipse
       cx="70.777"
       cy="65.112999"
       rx="4.7859998"
       ry="4.4310002"
       id="ellipse22985"
       style="fill:#fdb462;fill-opacity:0.90399996;stroke:none;stroke-width:2;stroke-linecap:round;stroke-linejoin:round" />
    <ellipse
       cx="57.397999"
       cy="103.643"
       rx="4.7859998"
       ry="4.4310002"
       id="ellipse22987"
       style="fill:#bebada;fill-opacity:0.95200004;stroke:none;stroke-width:2;stroke-linecap:round;stroke-linejoin:round" />
    <ellipse
       cx="39.179001"
       cy="91.580002"
       rx="4.7859998"
       ry="4.4310002"
       id="ellipse22989"
       style="fill:#80b1d3;fill-opacity:0.972;stroke:none;stroke-width:2;stroke-linecap:round;stroke-linejoin:round" />
    <ellipse
       cx="78.300003"
       cy="109.869"
       rx="4.7859998"
       ry="4.4310002"
       id="ellipse22991"
       style="fill:#fb8072;fill-opacity:0.98400005;stroke:none;stroke-width:2;stroke-linecap:round;stroke-linejoin:round" />
    <ellipse
       cx="111.249"
       cy="46.300999"
       rx="4.7859998"
       ry="4.4310002"
       id="ellipse22993"
       style="fill:#ccebc5;fill-opacity:0.92400004;stroke:none;stroke-width:2;stroke-linecap:round;stroke-linejoin:round" />
    <ellipse
       cx="87.757004"
       cy="39.617001"
       rx="4.7859998"
       ry="4.4310002"
       id="ellipse22995"
       style="fill:#b3de69;fill-opacity:0.94800002;stroke:none;stroke-width:2;stroke-linecap:round;stroke-linejoin:round" />
    <ellipse
       cx="73.831001"
       cy="122.594"
       rx="4.7859998"
       ry="4.4310002"
       id="ellipse22997"
       style="fill:#8dd3c7;fill-opacity:1;stroke:none;stroke-width:2;stroke-linecap:round;stroke-linejoin:round" />
    <ellipse
       cx="99.417999"
       cy="57.887001"
       rx="4.7859998"
       ry="4.4310002"
       id="ellipse22999"
       style="fill:#bc80bd;fill-opacity:0.95999995;stroke:none;stroke-width:2;stroke-linecap:round;stroke-linejoin:round" />
    <ellipse
       cx="125.859"
       cy="50.792"
       rx="4.7859998"
       ry="4.4310002"
       id="ellipse23001"
       style="fill:#ffed6f;fill-opacity:0.98400005;stroke:none;stroke-width:2;stroke-linecap:round;stroke-linejoin:round" />
    <ellipse
       cx="101.593"
       cy="35.469002"
       rx="4.7859998"
       ry="4.4310002"
       id="ellipse23003"
       style="fill:#fccde5;fill-opacity:1;stroke:none;stroke-width:2;stroke-linecap:round;stroke-linejoin:round" />
    <ellipse
       cx="57.146"
       cy="121.751"
       rx="4.7859998"
       ry="4.4310002"
       id="ellipse23005"
       style="fill:#ffffb3;fill-opacity:0.972;stroke:none;stroke-width:2;stroke-linecap:round;stroke-linejoin:round" />
    <path
       d="m 118.317,59.737 c -0.489,-1.321 -1.282,-2.509 -1.467,-3.964 -0.213,-1.668 -0.296,-3.749 0.561,-5.531 1.122,-2.333 4.729,-5.603 6.816,-6.68 1.314,-0.678 2.395,-0.738 3.722,-0.667 1.571,0.084 3.745,0.66 5.076,1.483 1.138,0.704 2.148,1.764 2.623,2.832 0.438,0.987 0.498,2.05 0.292,3.279 -0.293,1.744 -1.27,4.378 -2.716,6.052 -1.581,1.829 -4.442,3.752 -6.68,4.258 -1.92,0.434 -4.458,0.233 -5.784,-0.714 -1.21,-0.864 -1.419,-2.909 -2.128,-4.363"
       id="path23027"
       style="fill:#ffed6f;fill-opacity:0.128;stroke:none;stroke-width:2;stroke-linecap:round;stroke-linejoin:round"
       inkscape:connector-curvature="0" />
    <path
       d="m 169.477,125.34 c -0.139,5.568 -0.278,11.137 -0.417,16.705"
       id="path23029"
       style="fill:none;stroke:#8dd3c7;stroke-width:2;stroke-linecap:round;stroke-linejoin:round;stroke-opacity:0.98400005"
       inkscape:connector-curvature="0" />
    <path
       d="m 186.106,124.334 c -0.153,5.569 -0.307,11.137 -0.46,16.705"
       id="path23031"
       style="fill:#ffffb3;fill-opacity:0.972;stroke:#ffffb3;stroke-width:2;stroke-linecap:round;stroke-linejoin:round;stroke-opacity:0.97254902"
       inkscape:connector-curvature="0" />
    <path
       d="m 202.256,124.846 c -0.14,5.568 -0.279,11.136 -0.418,16.705"
       id="path23033"
       style="fill:none;stroke:#fb8072;stroke-width:2;stroke-linecap:round;stroke-linejoin:round;stroke-opacity:0.98431373"
       inkscape:connector-curvature="0" />
    <path
       d="m 217.851,123.843 c -0.139,5.569 -0.278,11.137 -0.418,16.705"
       id="path23035"
       style="fill:none;stroke:#bebada;stroke-width:2;stroke-linecap:round;stroke-linejoin:round;stroke-opacity:0.95294118"
       inkscape:connector-curvature="0" />
    <path
       d="m 234.758,123.841 c -0.139,5.568 -0.278,11.136 -0.417,16.705"
       id="path23037"
       style="fill:none;stroke:#80b1d3;stroke-width:2;stroke-linecap:round;stroke-linejoin:round;stroke-opacity:0.97254902"
       inkscape:connector-curvature="0" />
    <path
       d="m 251.708,123.943 c -0.14,5.568 -0.279,11.136 -0.418,16.705"
       id="path23039"
       style="fill:none;stroke:#fdb462;stroke-width:2;stroke-linecap:round;stroke-linejoin:round;stroke-opacity:0.90588235"
       inkscape:connector-curvature="0" />
    <path
       d="m 268.337,122.937 c -0.154,5.568 -0.307,11.137 -0.461,16.705"
       id="path23041"
       style="fill:none;stroke:#bc80bd;stroke-width:2;stroke-linecap:round;stroke-linejoin:round;stroke-opacity:0.96078431"
       inkscape:connector-curvature="0" />
    <path
       d="m 284.486,123.448 c -0.139,5.569 -0.278,11.137 -0.418,16.705"
       id="path23043"
       style="fill:none;stroke:#b3de69;stroke-width:2;stroke-linecap:round;stroke-linejoin:round;stroke-opacity:0.94901961"
       inkscape:connector-curvature="0" />
    <path
       d="m 300.081,122.446 c -0.139,5.568 -0.278,11.137 -0.417,16.705"
       id="path23045"
       style="fill:none;stroke:#fccde5;stroke-width:2;stroke-linecap:round;stroke-linejoin:round;stroke-opacity:1"
       inkscape:connector-curvature="0" />
    <path
       d="m 316.989,122.443 c -0.139,5.569 -0.278,11.137 -0.418,16.705"
       id="path23047"
       style="fill:none;stroke:#ccebc5;stroke-width:2;stroke-linecap:round;stroke-linejoin:round;stroke-opacity:0.9254902"
       inkscape:connector-curvature="0" />
    <path
       d="m 334.886,122.471 c -0.14,5.568 -0.279,11.136 -0.418,16.705"
       id="path23049"
       style="fill:none;stroke:#ffed6f;stroke-width:2;stroke-linecap:round;stroke-linejoin:round;stroke-opacity:0.956"
       inkscape:connector-curvature="0" />
  </g>
</svg>
